# xmcd
#
# Track frame offsets:
#	150
#	3352
#	22599
#	36577
#	52202
#	63478
#	80370
#	99009
#	114585
#	133180
#	149870
#
# Disc length: 2131 seconds
#
# Revision: 1
# Processed by: cddbd v1.4PL0 Copyright (c) Steve Scherf et al.
# Submitted via: EasyCDDAExtractor 5.0.7
#
DISCID=9508510b
DTITLE=Chuck Lee Bramlet - Pooks Road
DYEAR=2002
DGENRE=Country
TTITLE0=Intro (Pooks Road)
TTITLE1=Love Like Mine
TTITLE2=I Can See
TTITLE3=Calling You
TTITLE4=Eyes Of A Killer
TTITLE5=Fingers Of My Hand
TTITLE6=I Don't
TTITLE7=Shes Moving On
TTITLE8=Explaining To Do
TTITLE9=Long Thin Line
TTITLE10=Outro (St.Johns Bridge)
EXTD=
EXTT0=
EXTT1=
EXTT2=
EXTT3=
EXTT4=
EXTT5=
EXTT6=
EXTT7=
EXTT8=
EXTT9=
EXTT10=
PLAYORDER=
